<svg width="24" height="24" viewBox="0 0 24 24" fill="none" xmlns="http://www.w3.org/2000/svg">
<path d="M12.0003 1C11.4941 1 11.0837 1.41041 11.0837 1.91667V5.58333C11.0837 6.08959 11.4941 6.5 12.0003 6.5C12.5066 6.5 12.917 6.08959 12.917 5.58333V1.91667C12.917 1.41041 12.5066 1 12.0003 1Z" fill="black" fill-opacity="0.3"/>
<path d="M12.0003 17.5C11.4941 17.5 11.0837 17.9104 11.0837 18.4167V22.0833C11.0837 22.5896 11.4941 23 12.0003 23C12.5066 23 12.917 22.5896 12.917 22.0833V18.4167C12.917 17.9104 12.5066 17.5 12.0003 17.5Z" fill="black" fill-opacity="0.3"/>
<path d="M1.91667 12.9169C1.41041 12.9169 1 12.5065 1 12.0002C1 11.4939 1.41041 11.0835 1.91667 11.0835L5.58333 11.0835C6.08959 11.0835 6.5 11.4939 6.5 12.0002C6.5 12.5065 6.08959 12.9169 5.58333 12.9169H1.91667Z" fill="black" fill-opacity="0.3"/>
<path d="M17.5 12.0002C17.5 12.5065 17.9104 12.9169 18.4167 12.9169H22.0833C22.5896 12.9169 23 12.5065 23 12.0002C23 11.4939 22.5896 11.0835 22.0833 11.0835L18.4167 11.0835C17.9104 11.0835 17.5 11.4939 17.5 12.0002Z" fill="black" fill-opacity="0.3"/>
<path d="M4.22203 5.51805C3.86405 5.16007 3.86405 4.57967 4.22203 4.22169C4.58001 3.86371 5.16042 3.86371 5.5184 4.22169L8.11112 6.81442C8.4691 7.1724 8.4691 7.7528 8.11112 8.11078C7.75314 8.46876 7.17274 8.46876 6.81476 8.11078L4.22203 5.51805Z" fill="black" fill-opacity="0.3"/>
<path d="M15.8891 15.8893C15.5311 16.2473 15.5311 16.8277 15.8891 17.1857L18.4818 19.7784C18.8398 20.1364 19.4202 20.1364 19.7782 19.7784C20.1362 19.4204 20.1362 18.84 19.7782 18.482L17.1854 15.8893C16.8275 15.5313 16.2471 15.5313 15.8891 15.8893Z" fill="black" fill-opacity="0.3"/>
<path d="M5.5186 19.778C5.16062 20.1359 4.58022 20.1359 4.22224 19.778C3.86426 19.42 3.86426 18.8396 4.22224 18.4816L6.81497 15.8889C7.17295 15.5309 7.75335 15.5309 8.11133 15.8889C8.46931 16.2469 8.46931 16.8273 8.11133 17.1852L5.5186 19.778Z" fill="black" fill-opacity="0.3"/>
<path d="M15.8893 8.11091C16.2473 8.46889 16.8277 8.46889 17.1857 8.11091L19.7784 5.51819C20.1364 5.16021 20.1364 4.57981 19.7784 4.22183C19.4204 3.86385 18.84 3.86385 18.482 4.22183L15.8893 6.81455C15.5313 7.17253 15.5313 7.75293 15.8893 8.11091Z" fill="black" fill-opacity="0.3"/>
</svg>
