<svg width="18" height="18" viewBox="0 0 18 18" fill="none" xmlns="http://www.w3.org/2000/svg">
<path fill-rule="evenodd" clip-rule="evenodd" d="M12.9295 13.9606C11.6342 15.0266 9.97518 15.6667 8.16667 15.6667C4.02454 15.6667 0.666672 12.3088 0.666672 8.16669C0.666672 4.02455 4.02454 0.666687 8.16667 0.666687C12.3088 0.666687 15.6667 4.02455 15.6667 8.16669C15.6667 9.97513 15.0266 11.6341 13.9607 12.9294L17.1579 16.1266C17.4426 16.4113 17.4426 16.873 17.1579 17.1578C16.8731 17.4425 16.4114 17.4425 16.1267 17.1578L12.9295 13.9606ZM14.2083 8.16669C14.2083 11.5034 11.5034 14.2084 8.16667 14.2084C4.82995 14.2084 2.12501 11.5034 2.12501 8.16669C2.12501 4.82997 4.82995 2.12502 8.16667 2.12502C11.5034 2.12502 14.2083 4.82997 14.2083 8.16669Z" fill="black" fill-opacity="0.5"/>
</svg>
